<?xml version="1.0" encoding="UTF-8"?>
<svg id="_Слой_2" data-name="Слой 2" xmlns="http://www.w3.org/2000/svg" viewBox="0 0 114.53 158.15">
  <defs>
    <style>
      .cls-1 {
        fill: none;
        stroke: #d4d4d4;
      }

      .cls-1, .cls-2, .cls-3, .cls-4, .cls-5 {
        stroke-miterlimit: 10;
      }

      .cls-6 {
        fill: #344d93;
        font-family: Alegreya-Italic, 'Alegreya Italic';
        font-size: 5.93px;
        font-style: italic;
      }

      .cls-7 {
        fill: #000;
      }

      .cls-7, .cls-8, .cls-9, .cls-10, .cls-11 {
        stroke-width: 0px;
      }

      .cls-8, .cls-3 {
        fill: #bdcddb;
      }

      .cls-2 {
        fill: #636466;
      }

      .cls-2, .cls-4, .cls-5 {
        stroke: #000;
      }

      .cls-3 {
        stroke: #606b74;
      }

      .cls-4 {
        fill: #3b3b3d;
      }

      .cls-9 {
        fill: #f9f9f9;
      }

      .cls-5 {
        fill: #303033;
      }

      .cls-10 {
        fill: #606b74;
      }

      .cls-11 {
        fill: #f2f0f0;
      }
    </style>
  </defs>
  <g id="_Слой_1-2" data-name="Слой 1">
    <g>
      <g>
        <path class="cls-9" d="M14.32,133.12c-7.62,0-13.82-6.2-13.82-13.82V14.32C.5,6.7,6.7.5,14.32.5h41.64c.82,0,1.66.09,2.59.26.44.15,1.05.34,1.75.46.68.23,1.39.56,1.92.83l.17.09c.14.07.28.15.42.21.72.41,1.36.83,1.91,1.28l44.26,36.35c3.21,2.63,5.05,6.53,5.05,10.68v68.63c0,7.62-6.2,13.82-13.82,13.82H14.32Z"/>
        <path class="cls-7" d="M55.96,1c.76,0,1.56.08,2.43.24.47.16,1.07.34,1.75.46.69.23,1.35.55,1.85.79l.17.09c.13.07.27.14.41.21.72.41,1.33.81,1.84,1.23l44.26,36.35c3.09,2.54,4.86,6.29,4.86,10.29v68.63c0,7.34-5.97,13.32-13.32,13.32H14.32c-7.34,0-13.32-5.97-13.32-13.32V14.32C1,6.97,6.97,1,14.32,1h41.64M55.96,0H14.32C6.41,0,0,6.41,0,14.32v104.99c0,7.91,6.41,14.32,14.32,14.32h85.9c7.91,0,14.32-6.41,14.32-14.32V50.67c0-4.28-1.92-8.34-5.23-11.06L65.05,3.25c-.63-.52-1.32-.96-2.03-1.36-.2-.09-.38-.19-.57-.29-.67-.33-1.35-.64-2.06-.88-.62-.11-1.19-.27-1.74-.46-.88-.17-1.78-.27-2.68-.27h0Z"/>
      </g>
      <g>
        <path class="cls-11" d="M60.79,42.38V1.15c.74.45,1.57.82,2.48,1.1l46.96,38.9c.17.42.37.83.6,1.23h-50.04Z"/>
        <path class="cls-7" d="M61.29,2c.54.27,1.12.51,1.74.71l46.79,38.76c.06.14.12.28.19.42h-48.72V2M60.29.44v42.44h51.43c-.42-.64-.78-1.32-1.07-2.03L63.52,1.81c-1.06-.32-2.01-.76-2.86-1.33-.12-.01-.25-.02-.37-.04h0Z"/>
      </g>
      <line class="cls-2" x1="14.57" y1="54.72" x2="100.47" y2="55.04"/>
      <line class="cls-4" x1="14.83" y1="74.77" x2="100.57" y2="75.09"/>
      <line class="cls-5" x1="14.71" y1="31.85" x2="59.41" y2="31.85"/>
      <g>
        <g>
          <path class="cls-10" d="M85.06,100.22c0,2.75-1.68,5.2-2.48,7.68-.84,2.57-.95,5.54-2.5,7.68-1.57,2.16-4.37,3.18-6.53,4.75-2.14,1.56-3.96,3.91-6.53,4.75-2.48.81-5.33,0-8.08,0s-5.6.81-8.08,0c-2.57-.84-4.39-3.19-6.53-4.75-2.16-1.57-4.96-2.59-6.53-4.75-1.56-2.14-1.67-5.1-2.5-7.68-.81-2.48-2.48-4.93-2.48-7.68s1.68-5.2,2.48-7.68c.84-2.57.95-5.54,2.5-7.68,1.57-2.16,4.37-3.18,6.53-4.75,2.14-1.56,3.96-3.91,6.53-4.75,2.48-.81,5.33,0,8.08,0s5.6-.81,8.08,0c2.57.84,4.39,3.19,6.53,4.75,2.16,1.57,4.96,2.59,6.53,4.75,1.56,2.14,1.67,5.1,2.5,7.68.81,2.48,2.48,4.93,2.48,7.68Z"/>
          <g>
            <g>
              <circle class="cls-1" cx="58.94" cy="100.22" r="22.66"/>
              <circle class="cls-1" cx="58.94" cy="100.22" r="21.42" transform="translate(-22.29 17.04) rotate(-13.86)"/>
            </g>
            <g>
              <line class="cls-1" x1="52.8" y1="86.04" x2="65.08" y2="86.04"/>
              <line class="cls-1" x1="52.8" y1="115.18" x2="65.08" y2="115.18"/>
            </g>
          </g>
        </g>
        <g>
          <path class="cls-8" d="M98.47,102.16v-8.41c-1.83,0-3.32-1.49-3.32-3.32H22.52c0,1.83-1.49,3.32-3.32,3.32v8.41c1.83,0,3.32,1.49,3.32,3.32h72.63c0-1.83,1.49-3.32,3.32-3.32Z"/>
          <path class="cls-3" d="M23.63,104.2c-.44-1.51-1.63-2.7-3.14-3.14v-6.2c1.51-.44,2.7-1.63,3.14-3.14h70.42c.44,1.51,1.63,2.7,3.14,3.14v6.2c-1.51.44-2.7,1.63-3.14,3.14H23.63Z"/>
          <text class="cls-6" transform="translate(24.41 100.49)"><tspan x="0" y="0">Nº</tspan></text>
        </g>
        <polygon class="cls-10" points="25.29 158.15 25.19 143.83 10.27 145.81 38.05 111.99 52.2 123.61 53.08 124.33 25.29 158.15"/>
        <polygon class="cls-1" points="27.76 150.67 27.68 139.63 16.18 141.16 37.59 115.08 48.5 124.04 49.18 124.6 27.76 150.67"/>
        <polygon class="cls-10" points="94.29 158.07 94.39 143.75 109.32 145.73 81.53 111.9 67.39 123.52 66.51 124.24 94.29 158.07"/>
        <polygon class="cls-1" points="91.39 150.59 91.47 139.55 102.97 141.07 81.56 115 70.65 123.96 69.97 124.51 91.39 150.59"/>
      </g>
    </g>
  </g>
</svg>